<?xml version="1.0" encoding="utf-8"?>
<!-- Generator: Adobe Illustrator 23.0.5, SVG Export Plug-In . SVG Version: 6.00 Build 0)  -->
<svg version="1.1" id="Capa_1" xmlns="http://www.w3.org/2000/svg" xmlns:xlink="http://www.w3.org/1999/xlink" x="0px" y="0px"
	 viewBox="0 0 50 34" style="enable-background:new 0 0 50 34;" xml:space="preserve">
<style type="text/css">
	.st0{fill:#FFFFFF;}
</style>
<path d="M0,15C0,6.7,6.7,0,15,0h20c8.3,0,15,6.7,15,15l0,0c0,8.3-6.7,15-15,15h-3.4c-1,0-2,0.4-2.8,1.1l0,0C28,31.8,26,33.7,25,33.7
	c-1,0-3-1.9-3.8-2.6l0,0c-0.8-0.7-1.8-1.1-2.8-1.1H15C6.7,30,0,23.3,0,15L0,15z"/>
<path class="st0" d="M32.1,12.2c-0.6,0-1.2,0.1-1.8,0.3c-0.4-1-0.8-2-1-2.9C29.1,8.1,27.7,7,26.2,7c-0.4,0-0.7,0.3-0.7,0.7
	c0,0.4,0.3,0.7,0.7,0.7c0.2,0,0.3,0,0.5,0.1c0.5,0.1,0.9,0.5,1.1,0.9c0,0,0,0-0.1,0.1l-0.2,0.4l-1.1,1.9h-5.9l-0.3-0.8h0.1
	c0.4,0,0.7-0.3,0.7-0.7c0-0.4-0.3-0.7-0.7-0.7h-2.4c-0.4,0-0.7,0.3-0.7,0.7c0,0.4,0.3,0.7,0.7,0.7h0.8l0.6,1.5
	c-0.4-0.1-0.9-0.2-1.4-0.2c-2.7,0-4.9,2.2-4.9,4.9c0,2.7,2.2,4.9,4.9,4.9c2.5,0,4.5-1.8,4.8-4.2H24c0.2,0,0.5-0.1,0.6-0.3l3.7-6.2
	c0.2,0.7,0.5,1.3,0.8,2c-1.2,0.9-1.9,2.3-1.9,3.9c0,2.7,2.2,4.9,4.9,4.9s4.9-2.2,4.9-4.9S34.8,12.2,32.1,12.2z M17.9,17.8h3.4
	c-0.3,1.6-1.7,2.8-3.4,2.8c-1.9,0-3.5-1.6-3.5-3.5c0-1.9,1.6-3.5,3.5-3.5c1.7,0,3.1,1.2,3.4,2.8h-3.4c-0.4,0-0.7,0.3-0.7,0.7
	C17.2,17.5,17.5,17.8,17.9,17.8z M23.6,16.4h-0.9c-0.2-1.1-0.7-2.1-1.5-2.9c0,0,0-0.1,0-0.1l-0.1-0.3h4.5L23.6,16.4z M32.1,20.6
	c-1.9,0-3.5-1.6-3.5-3.5c0-1,0.4-1.9,1.1-2.6c0.9,1.7,1.7,2.9,1.8,3c0.1,0.2,0.4,0.3,0.6,0.3c0.1,0,0.3,0,0.4-0.1
	c0.3-0.2,0.4-0.7,0.2-1c0,0-0.9-1.3-1.7-2.9c0.4-0.1,0.7-0.2,1.1-0.2c1.9,0,3.5,1.6,3.5,3.5C35.6,19,34,20.6,32.1,20.6z"/>
</svg>
