<svg width="213" height="120" viewBox="0 0 213 120" fill="none" xmlns="http://www.w3.org/2000/svg">
<path d="M167.607 28.783C161.417 28.783 155.513 30.0302 150.131 32.2839L137.262 7.31386H155.249C157.2 7.31386 158.788 8.90145 158.788 10.8528C158.788 12.8041 157.2 14.3917 155.249 14.3917H151.411C149.391 14.3917 147.754 16.0291 147.754 18.0487C147.754 20.0683 149.391 21.7056 151.411 21.7056H155.249C161.233 21.7056 166.102 16.837 166.102 10.8528C166.102 4.86859 161.233 0 155.249 0H131.263C129.988 0 128.805 0.664586 128.141 1.75338C127.477 2.84217 127.428 4.19864 128.012 5.33229L134.412 17.7498H81.6339L76.3094 7.31386H84.7296C86.7497 7.31386 88.3865 5.67653 88.3865 3.65693C88.3865 1.63733 86.7497 0 84.7296 0H60.7435C58.7235 0 57.0866 1.63733 57.0866 3.65693C57.0866 5.67653 58.7235 7.31386 60.7435 7.31386H68.0984L75.2055 21.2433L66.8521 34.1855C60.4583 30.7406 53.1503 28.783 45.3927 28.783C20.3632 28.783 0 49.1457 0 74.1752C0 99.2047 20.3632 119.568 45.3927 119.568C69.191 119.568 88.7693 101.158 90.6377 77.8321H101.368L97.1997 91.3959H94.7998C92.7797 91.3959 91.1429 93.0332 91.1429 95.0528C91.1429 97.0724 92.7797 98.7098 94.7998 98.7098H107.965C109.985 98.7098 111.622 97.0724 111.622 95.0528C111.622 93.0332 109.985 91.3959 107.965 91.3959H104.851L109.663 75.7374L140.092 28.7693L143.636 35.6458C130.784 43.6706 122.215 57.9399 122.215 74.1752C122.215 99.2047 142.578 119.568 167.608 119.568C192.637 119.568 213 99.2047 213 74.1752C213 49.1457 192.637 28.783 167.607 28.783ZM79.0487 28.7756L100.346 70.5183H90.6372C89.5831 57.3606 82.8933 45.7691 72.9899 38.1622L79.0487 28.7756ZM83.2922 70.5183H52.1059L69.0062 44.3351C76.9096 50.6031 82.2785 59.9317 83.2922 70.5183ZM45.3927 112.254C24.3956 112.254 7.31386 95.1723 7.31386 74.1752C7.31386 53.1786 24.3956 36.0963 45.3927 36.0963C51.6895 36.0963 57.6288 37.642 62.8665 40.3593L42.3199 72.1917C41.5939 73.3165 41.5408 74.7486 42.1815 75.9242C42.8217 77.0998 44.0538 77.8316 45.3927 77.8316H83.2922C81.4452 97.1193 65.1557 112.254 45.3927 112.254ZM106.694 66.8677L85.3654 25.0631H133.778L106.694 66.8677ZM167.607 112.254C146.61 112.254 129.528 95.1718 129.528 74.1752C129.528 60.7674 136.499 48.9648 147.002 42.178L164.357 75.8506C165.006 77.11 166.284 77.8326 167.61 77.8326C168.174 77.8326 168.747 77.7015 169.283 77.4255C171.078 76.5005 171.783 74.2951 170.858 72.4993L153.498 38.8171C157.865 37.0686 162.623 36.0958 167.607 36.0958C188.604 36.0958 205.686 53.1781 205.686 74.1747C205.686 95.1723 188.604 112.254 167.607 112.254Z" fill="#0000FF"/>
</svg>
