<svg id="Capa_1" data-name="Capa 1" xmlns="http://www.w3.org/2000/svg" viewBox="0 0 678.34 915.78"><defs><style>.cls-1{fill:blue;}</style></defs><title>F</title><path class="cls-1" d="M1289.51,190l9.66-44.67c-54.59-21.15-99.26-37.09-134.52-47.53a377.76,377.76,0,0,0-108.4-15.68c-37.35,0-71.3,11.5-102.39,34-30.82,22.72-52.24,63.21-64.51,122l-110,523.19c-35.52,11-64,21.68-85.68,31.6-21.67,10.19-39.18,23.77-52.76,41-13.32,17-20.11,38.66-20.11,65,0,28.73,11,52.24,32.65,71.05,21.68,18.54,46.75,27.95,75.49,27.95,37.35,0,71.31-11.5,102.13-34,30.82-22.72,52.5-63.21,64.78-122l104.48-495h85.15l7.31-36.57h-85.15l20.11-97.95c5.49-27.69,14.11-46.49,25.6-56.94,11.75-10.45,23.77-15.67,36.83-15.67,7.84,0,26.58,2.31,35.26,4.18C1167.11,153,1289.51,190,1289.51,190ZM761.88,844.82c-4.7,25.08-12.28,43.1-22.47,54.33-9.92,11.5-20.63,17-31.6,17a38.3,38.3,0,0,1-25.6-9.4c-7.31-6.53-11-13.32-11-20.64q0-34.86,26.64-56.42c17.77-14.36,42.58-27.16,75-38.13Z" transform="translate(-620.83 -82.11)"/></svg>