<svg width="36" height="36" viewBox="0 0 36 36" fill="none" xmlns="http://www.w3.org/2000/svg">
<path d="M18 33.9912C26.8366 33.9912 34 26.8278 34 17.9912C34 9.15465 26.8366 1.99121 18 1.99121C9.16344 1.99121 2 9.15465 2 17.9912C2 26.8278 9.16344 33.9912 18 33.9912Z" stroke="#0000FF" stroke-width="3" stroke-linecap="round" stroke-linejoin="round"/>
<path d="M13.344 13.1912C13.7202 12.1218 14.4626 11.2201 15.4399 10.6458C16.4172 10.0714 17.5662 9.86147 18.6835 10.0531C19.8007 10.2447 20.8141 10.8256 21.5441 11.6928C22.2741 12.56 22.6737 13.6576 22.672 14.7912C22.672 17.9912 17.872 19.5912 17.872 19.5912" stroke="#0000FF" stroke-width="3" stroke-linecap="round" stroke-linejoin="round"/>
<path d="M18 25.9912H18.016" stroke="#0000FF" stroke-width="3" stroke-linecap="round" stroke-linejoin="round"/>
</svg>
