<svg id="Capa_1" data-name="Capa 1" xmlns="http://www.w3.org/2000/svg" viewBox="0 0 361.52 154.54"><defs><style>.cls-1{fill:blue;}</style></defs><title>Main Logotype</title><path class="cls-1" d="M1019.68,497.71c-3.2,0-5.59.77-7.19,2.32a8,8,0,0,0-2.4,6,10.43,10.43,0,0,0,1.47,5.42,4.54,4.54,0,0,0,4.1,2.47,14.09,14.09,0,0,0,2.94-.38q1.7-.39,2-1.17,0,9-3.71,21.35a76.94,76.94,0,0,1-9.83,21.35q-6.11,9-13.22,9-5.26,0-5.26-5.1a31.89,31.89,0,0,1,.77-5.57l11.14-52.6H978.22L967.7,550.46a26.68,26.68,0,0,1-5,10,9.44,9.44,0,0,1-7.42,3.63c-3.09,0-4.64-2.26-4.64-6.8a15.9,15.9,0,0,1,.46-3.87l11.14-52.6H940l-4.38,20.72c-.19.08-.37.17-.57.24a31.68,31.68,0,0,1-11.75,2.71,6.38,6.38,0,0,1-1.7-.15v-.16q0-24.75-19.8-24.75-14.55,0-24.14,9.36A55.31,55.31,0,0,0,863.75,531q-4.32,12.84-4.33,23.36c0,.47,0,.91.05,1.37a19.74,19.74,0,0,1-3.45,4.58,11.79,11.79,0,0,1-8.36,3.79c-2.26,0-3.89-.43-4.87-1.31s-1.47-2.35-1.47-4.41a19.29,19.29,0,0,1,.62-5L859,473q-13.77-5.41-22.67-8A64.43,64.43,0,0,0,818,462.28,28.46,28.46,0,0,0,800.72,468q-7.82,5.73-10.91,20.57l-18.56,88.33a120.11,120.11,0,0,0-14.47,5.34,23.93,23.93,0,0,0-8.89,6.88,17.25,17.25,0,0,0-3.41,11,15.14,15.14,0,0,0,5.5,12,19,19,0,0,0,12.76,4.71A28.57,28.57,0,0,0,780,611.1q7.8-5.73,10.9-20.57L808.53,507h14.38l1.24-6.19H809.76l3.41-16.55q1.4-7,4.33-9.59a9.2,9.2,0,0,1,6.19-2.63,36.86,36.86,0,0,1,5.95.7,35,35,0,0,1,6.73,1.78l-16.09,76a54,54,0,0,0-1.23,10.06q0,9.27,4.56,13.92t12,4.64q8.82,0,17.79-6a28.45,28.45,0,0,0,7.66-7.91,18,18,0,0,0,5,7.68q6.64,5.88,18.1,5.88a29.56,29.56,0,0,0,17.48-5.72A41.77,41.77,0,0,0,914.8,556.8a70,70,0,0,0,6.34-24.59,62.23,62.23,0,0,0,13-3.58l-4.63,21.83a54,54,0,0,0-1.23,10.06q0,9.27,4.56,13.92t12,4.64q13.31,0,22-13a15,15,0,0,0,6.18,9.75q4.8,3.25,12.38,3.25a31.58,31.58,0,0,0,24.6-11.14,71,71,0,0,0,14.69-27,103,103,0,0,0,4.8-29.78,18.34,18.34,0,0,0-2.32-9.67Q1024.78,497.71,1019.68,497.71ZM768.31,591q-1.24,6.35-3.79,9.2t-5.34,2.87a6.39,6.39,0,0,1-4.33-1.63A4.63,4.63,0,0,1,753,598a11.65,11.65,0,0,1,4.49-9.51q4.49-3.65,12.68-6.42Zm140-58.32a74.4,74.4,0,0,1-4,16.32,38,38,0,0,1-6.5,11.6c-2.47,2.84-4.95,4.26-7.42,4.26-3,0-5.06-.85-6.19-2.56s-1.7-5-1.7-10a68.06,68.06,0,0,1,2.94-18.26,65.57,65.57,0,0,1,7.73-17.79q4.8-7.42,9.9-7.42c2.06,0,3.51.64,4.33,1.93s1.34,3.64,1.55,7q-4.8,2-4.79,8.35C904.13,529.89,905.52,532.05,908.3,532.67Z" transform="translate(-744.48 -462.28)"/><path class="cls-1" d="M1095.71,562.76q-1.47-1.32-1.47-4.41a19.29,19.29,0,0,1,.62-5L1106,500.8h-22.28L1082,509v-1.08a6.67,6.67,0,0,0-3.09-5.72c-2.07-1.45-5.21-2.17-9.44-2.17a30,30,0,0,0-21.58,8.74,55.39,55.39,0,0,0-13.61,21.35,70.66,70.66,0,0,0-4.56,24q0,12.84,5.87,18.88a19.69,19.69,0,0,0,14.7,6q13.61,0,23-14.39.93,6.81,4.87,10.6a14.22,14.22,0,0,0,10.29,3.79q5.88,0,9-3.48t6.5-12.15a7.62,7.62,0,0,1-3.4.62C1098.32,564.07,1096.69,563.64,1095.71,562.76Zm-22.51-12.3a19,19,0,0,1-5.18,10q-3.8,3.63-7.66,3.63a7.63,7.63,0,0,1-5.49-2.16q-2.23-2.17-2.24-9.9a68.8,68.8,0,0,1,2.78-17.87,57.18,57.18,0,0,1,7.74-17.33q4.95-7.18,11.14-7.19a5.77,5.77,0,0,1,4.79,1.94,6.28,6.28,0,0,1,1.55,3.94Z" transform="translate(-744.48 -462.28)"/></svg>