<svg width="160" height="135" viewBox="0 0 160 135" fill="none" xmlns="http://www.w3.org/2000/svg">
<path d="M137.812 90C131.207 90 125.271 92.9047 121.202 97.5H110.993C118.691 83.7053 135.934 77.8709 150.487 84.7925C152.825 85.9044 155.621 84.9106 156.733 82.5725C157.845 80.2347 156.851 77.4378 154.513 76.3262C134.036 66.5872 109.234 76.0084 100.633 97.5H62.1153L35.4444 67.2741L46.3847 9.375H62.5C65.0888 9.375 67.1875 7.27625 67.1875 4.6875C67.1875 2.09875 65.0888 0 62.5 0H42.5C40.2469 0 38.3125 1.60313 37.8941 3.81719L21.6066 90.015C9.64062 90.3247 0 100.148 0 112.188C0 124.422 9.95344 134.375 22.1875 134.375C34.4216 134.375 44.375 124.422 44.375 112.188C44.375 103.014 38.7784 95.1222 30.82 91.7484L33.2394 78.9447L55.5056 104.179C55.8906 116.76 66.1913 126.875 78.9281 126.875H121.202C125.271 131.47 131.207 134.375 137.812 134.375C150.047 134.375 160 124.422 160 112.188C160 99.9534 150.047 90 137.812 90ZM35 112.188C35 119.252 29.2522 125 22.1875 125C15.1228 125 9.375 119.252 9.375 112.188C9.375 105.941 13.87 100.727 19.795 99.6025L17.5816 111.317C17.0378 114.195 19.2419 116.876 22.1928 116.876C24.4016 116.876 26.3684 115.308 26.7937 113.058L29.0063 101.348C32.6037 103.619 35 107.628 35 112.188ZM78.9281 117.5C72.1806 117.5 66.77 112.812 65.2847 106.875H116.272C115.41 110.371 115.408 113.997 116.272 117.5H78.9281ZM137.812 125C130.748 125 125 119.252 125 112.188C125 105.123 130.748 99.375 137.812 99.375C144.877 99.375 150.625 105.123 150.625 112.188C150.625 119.252 144.877 125 137.812 125Z" fill="#0000FF"/>
</svg>
