<svg width="25" height="25" viewBox="0 0 25 25" fill="none" xmlns="http://www.w3.org/2000/svg">
<path d="M12.2927 15.1587C13.9496 15.1587 15.2927 13.8155 15.2927 12.1587C15.2927 10.5018 13.9496 9.15869 12.2927 9.15869C10.6359 9.15869 9.29272 10.5018 9.29272 12.1587C9.29272 13.8155 10.6359 15.1587 12.2927 15.1587Z" stroke="#0000FF" stroke-width="2" stroke-linecap="round" stroke-linejoin="round"/>
<path d="M19.6927 15.1587C19.5596 15.4603 19.5199 15.7949 19.5787 16.1193C19.6375 16.4437 19.7922 16.743 20.0227 16.9787L20.0827 17.0387C20.2687 17.2244 20.4162 17.445 20.5168 17.6878C20.6175 17.9306 20.6693 18.1909 20.6693 18.4537C20.6693 18.7165 20.6175 18.9768 20.5168 19.2196C20.4162 19.4624 20.2687 19.6829 20.0827 19.8687C19.897 20.0546 19.6764 20.2022 19.4336 20.3028C19.1908 20.4035 18.9306 20.4553 18.6677 20.4553C18.4049 20.4553 18.1446 20.4035 17.9018 20.3028C17.659 20.2022 17.4385 20.0546 17.2527 19.8687L17.1927 19.8087C16.957 19.5782 16.6577 19.4235 16.3333 19.3647C16.0089 19.3059 15.6743 19.3456 15.3727 19.4787C15.077 19.6055 14.8247 19.8159 14.647 20.0842C14.4694 20.3525 14.374 20.6669 14.3727 20.9887V21.1587C14.3727 21.6891 14.162 22.1978 13.7869 22.5729C13.4119 22.948 12.9032 23.1587 12.3727 23.1587C11.8423 23.1587 11.3336 22.948 10.9585 22.5729C10.5834 22.1978 10.3727 21.6891 10.3727 21.1587V21.0687C10.365 20.7377 10.2578 20.4167 10.0652 20.1474C9.87263 19.8781 9.60346 19.673 9.29272 19.5587C8.99111 19.4256 8.65653 19.3859 8.33214 19.4447C8.00774 19.5035 7.7084 19.6582 7.47272 19.8887L7.41272 19.9487C7.22698 20.1346 7.0064 20.2822 6.76361 20.3828C6.52081 20.4835 6.26056 20.5353 5.99772 20.5353C5.73489 20.5353 5.47464 20.4835 5.23184 20.3828C4.98905 20.2822 4.76847 20.1346 4.58272 19.9487C4.39677 19.7629 4.24925 19.5424 4.14861 19.2996C4.04796 19.0568 3.99615 18.7965 3.99615 18.5337C3.99615 18.2709 4.04796 18.0106 4.14861 17.7678C4.24925 17.525 4.39677 17.3044 4.58272 17.1187L4.64272 17.0587C4.87326 16.823 5.02791 16.5237 5.08673 16.1993C5.14555 15.8749 5.10584 15.5403 4.97272 15.2387C4.84596 14.9429 4.63548 14.6907 4.36719 14.513C4.0989 14.3353 3.78451 14.24 3.46272 14.2387H3.29272C2.76229 14.2387 2.25358 14.028 1.87851 13.6529C1.50344 13.2778 1.29272 12.7691 1.29272 12.2387C1.29272 11.7083 1.50344 11.1996 1.87851 10.8245C2.25358 10.4494 2.76229 10.2387 3.29272 10.2387H3.38272C3.71372 10.2309 4.03473 10.1238 4.30402 9.9312C4.57332 9.73859 4.77844 9.46943 4.89272 9.15869C5.02584 8.85708 5.06555 8.5225 5.00673 8.1981C4.94791 7.87371 4.79326 7.57437 4.56272 7.33869L4.50272 7.27869C4.31677 7.09295 4.16925 6.87237 4.06861 6.62957C3.96796 6.38678 3.91615 6.12652 3.91615 5.86369C3.91615 5.60086 3.96796 5.34061 4.06861 5.09781C4.16925 4.85501 4.31677 4.63444 4.50272 4.44869C4.68847 4.26274 4.90905 4.11522 5.15184 4.01457C5.39464 3.91392 5.65489 3.86212 5.91772 3.86212C6.18056 3.86212 6.44081 3.91392 6.68361 4.01457C6.9264 4.11522 7.14698 4.26274 7.33272 4.44869L7.39272 4.50869C7.6284 4.73923 7.92774 4.89388 8.25214 4.9527C8.57653 5.01151 8.91111 4.97181 9.21272 4.83869H9.29272C9.58849 4.71193 9.84074 4.50145 10.0184 4.23316C10.1961 3.96487 10.2914 3.65048 10.2927 3.32869V3.15869C10.2927 2.62826 10.5034 2.11955 10.8785 1.74448C11.2536 1.36941 11.7623 1.15869 12.2927 1.15869C12.8232 1.15869 13.3319 1.36941 13.7069 1.74448C14.082 2.11955 14.2927 2.62826 14.2927 3.15869V3.24869C14.294 3.57048 14.3894 3.88487 14.567 4.15316C14.7447 4.42145 14.997 4.63193 15.2927 4.75869C15.5943 4.89181 15.9289 4.93151 16.2533 4.8727C16.5777 4.81388 16.877 4.65923 17.1127 4.42869L17.1727 4.36869C17.3585 4.18274 17.579 4.03522 17.8218 3.93457C18.0646 3.83392 18.3249 3.78212 18.5877 3.78212C18.8506 3.78212 19.1108 3.83392 19.3536 3.93457C19.5964 4.03522 19.817 4.18274 20.0027 4.36869C20.1887 4.55444 20.3362 4.77501 20.4368 5.01781C20.5375 5.26061 20.5893 5.52086 20.5893 5.78369C20.5893 6.04652 20.5375 6.30678 20.4368 6.54957C20.3362 6.79237 20.1887 7.01295 20.0027 7.19869L19.9427 7.25869C19.7122 7.49437 19.5575 7.79371 19.4987 8.1181C19.4399 8.4425 19.4796 8.77708 19.6127 9.07869V9.15869C19.7395 9.45446 19.95 9.70671 20.2183 9.88438C20.4865 10.0621 20.8009 10.1574 21.1227 10.1587H21.2927C21.8232 10.1587 22.3319 10.3694 22.7069 10.7445C23.082 11.1196 23.2927 11.6283 23.2927 12.1587C23.2927 12.6891 23.082 13.1978 22.7069 13.5729C22.3319 13.948 21.8232 14.1587 21.2927 14.1587H21.2027C20.8809 14.16 20.5665 14.2553 20.2983 14.433C20.03 14.6107 19.8195 14.8629 19.6927 15.1587V15.1587Z" stroke="#0000FF" stroke-width="2" stroke-linecap="round" stroke-linejoin="round"/>
</svg>
