<svg width="40" height="29" viewBox="0 0 40 29" fill="none" xmlns="http://www.w3.org/2000/svg">
<path d="M37.2464 5.91333C37.052 5.14588 36.6561 4.44271 36.0988 3.87485C35.5414 3.30699 34.8423 2.89454 34.072 2.67917C31.2576 2 20 2 20 2C20 2 8.7424 2 5.928 2.74386C5.15772 2.95922 4.45859 3.37167 3.90122 3.93953C3.34386 4.50739 2.94799 5.21056 2.75362 5.97801C2.23855 8.8007 1.98659 11.6641 2.00094 14.5323C1.98258 17.4221 2.23454 20.3074 2.75362 23.1514C2.96791 23.895 3.37264 24.5714 3.92871 25.1153C4.48478 25.6591 5.17339 26.0521 5.928 26.2561C8.7424 27 20 27 20 27C20 27 31.2576 27 34.072 26.2561C34.8423 26.0408 35.5414 25.6283 36.0988 25.0605C36.6561 24.4926 37.052 23.7894 37.2464 23.022C37.7575 20.2206 38.0094 17.3789 37.9991 14.5323C38.0174 11.6426 37.7655 8.75727 37.2464 5.91333V5.91333Z" stroke="#0000FF" stroke-width="3" stroke-linecap="round" stroke-linejoin="round"/>
<path d="M16 20L26 15L16 10V20Z" stroke="#0000FF" stroke-width="3" stroke-linecap="round" stroke-linejoin="round"/>
</svg>
